<svg width="100" height="100" viewBox="0 0 100 100" fill="none" xmlns="http://www.w3.org/2000/svg">
<path d="M33.2144 9V90.4286" stroke="#0B0B0B" stroke-width="3.5" stroke-linecap="round"/>
<path d="M33.2144 49.7143C42.7144 40.2143 56.2858 25.2857 73.9286 13.0714" stroke="#0B0B0B" stroke-width="3.5" stroke-linecap="round"/>
<path d="M33.2144 49.7143C45.4286 60.5714 60.3572 70.0714 78.0001 83.6429" stroke="#0B0B0B" stroke-width="3.5" stroke-linecap="round"/>
<path d="M33.2143 61.9286C39.9601 61.9286 45.4286 56.4601 45.4286 49.7143C45.4286 42.9685 39.9601 37.5 33.2143 37.5C26.4685 37.5 21 42.9685 21 49.7143C21 56.4601 26.4685 61.9286 33.2143 61.9286Z" fill="#C8F135" fill-opacity="0.32"/>
<path d="M33.2142 56.5C36.9618 56.5 39.9999 53.4619 39.9999 49.7143C39.9999 45.9666 36.9618 42.9286 33.2142 42.9286C29.4665 42.9286 26.4285 45.9666 26.4285 49.7143C26.4285 53.4619 29.4665 56.5 33.2142 56.5Z" fill="#C8F135"/>
</svg>
